<svg width="100%" height="100%" viewBox="0 0 726 562" fill="none" xmlns="http://www.w3.org/2000/svg">
<g style="mix-blend-mode:overlay">
<path d="M133.07 3.21928C-75.3831 28.2622 -230 120.177 -230 229.733C-230 358.556 -16.2193 462.987 247.493 462.987C511.204 462.987 724.985 358.556 724.985 229.733C724.985 116.632 560.2 22.3323 341.514 1" stroke="url(#paint0_angular_595_67)" stroke-width="1.70856" stroke-linecap="round"/>
</g>
<g style="mix-blend-mode:overlay">
<path d="M133.07 4.86186C-75.3831 29.9048 -230 121.82 -230 231.376C-230 360.199 -16.2193 464.63 247.493 464.63C511.204 464.63 724.985 360.199 724.985 231.376C724.985 118.275 560.2 23.9749 341.514 2.64258" stroke="url(#paint1_angular_595_67)" stroke-width="1.70856" stroke-linecap="round"/>
</g>
<g style="mix-blend-mode:overlay">
<path d="M357.746 8.47852C568.303 32.7898 724.985 125.199 724.985 235.484C724.985 364.307 511.204 468.738 247.493 468.738C-16.2193 468.738 -230 364.307 -230 235.484C-230 127.731 -80.4323 37.0439 122.818 10.2607" stroke="url(#paint2_angular_595_67)" stroke-width="1.70856" stroke-linecap="round"/>
</g>
<g style="mix-blend-mode:overlay">
<path d="M106.587 19.1232C-88.3453 48.4904 -230 137.192 -230 242.055C-230 370.878 -16.2193 475.309 247.493 475.309C511.204 475.309 724.985 370.878 724.985 242.055C724.985 133.793 573.999 42.7574 369.279 16.4561" stroke="url(#paint3_angular_595_67)" stroke-width="1.70856" stroke-linecap="round"/>
</g>
<g style="mix-blend-mode:overlay">
<path d="M386.791 27.9189C582.552 57.0398 724.985 145.94 724.985 251.091C724.985 379.914 511.204 484.345 247.493 484.345C-16.2193 484.345 -230 379.914 -230 251.091C-230 149.395 -96.7721 62.8991 89.0742 30.9813" stroke="url(#paint4_angular_595_67)" stroke-width="1.70856" stroke-linecap="round"/>
</g>
<mask id="mask0_595_67" style="mask-type:alpha" maskUnits="userSpaceOnUse" x="-6" y="273" width="252" height="289">
<rect x="-5.21924" y="273.635" width="251.044" height="287.992" fill="url(#paint5_linear_595_67)"/>
</mask>
<g mask="url(#mask0_595_67)">
<g opacity="0.8">
<path d="M127.001 290.764L189.029 324.391L218.682 373.607L174.114 535.207L127 507.957L127.001 290.764Z" fill="url(#paint6_linear_595_67)"/>
<path opacity="0.8" d="M127 290.764L127 402.371L181.783 370.104L189.028 324.391L127 290.764Z" fill="url(#paint7_linear_595_67)" fill-opacity="0.7"/>
<g opacity="0.8">
<path d="M126.999 290.766L64.9608 324.398L35.3184 373.608L79.8857 535.207L127 507.957L126.999 290.766Z" fill="url(#paint8_linear_595_67)" fill-opacity="0.7"/>
<path d="M126.999 290.766L64.9608 324.398L35.3184 373.608L79.8857 535.207L127 507.957L126.999 290.766Z" fill="url(#paint9_linear_595_67)" fill-opacity="0.5"/>
</g>
<path d="M174.116 535.207L127 507.958L127 562.456L174.116 535.207Z" fill="url(#paint10_linear_595_67)"/>
<path d="M127.001 376.579L95.8037 358.536L127.001 340.494L158.198 358.536L127.001 376.579Z" fill="url(#paint11_linear_595_67)" fill-opacity="0.5"/>
<path d="M79.8843 535.207L127 562.456L127 507.958L79.8843 535.207Z" fill="url(#paint12_linear_595_67)" fill-opacity="0.8"/>
<path d="M127.001 550.971L101.73 536.356L127.001 521.741L152.272 536.356L127.001 550.971Z" fill="url(#paint13_linear_595_67)" fill-opacity="0.6"/>
<path opacity="0.8" d="M127 290.764L126.999 402.371L72.2166 370.104L64.9719 324.391L127 290.764Z" fill="url(#paint14_linear_595_67)"/>
<path d="M35.3194 373.607L64.9721 324.39L72.2168 370.104L35.3194 373.607Z" fill="url(#paint15_linear_595_67)" fill-opacity="0.7"/>
<path d="M127.001 419.097L76.2275 389.733L127.001 360.369L177.774 389.733L127.001 419.097Z" fill="url(#paint16_linear_595_67)" fill-opacity="0.7"/>
<path d="M127.001 419.097L76.2275 389.733L127.001 360.369L177.774 389.733L127.001 419.097Z" fill="url(#paint17_linear_595_67)" fill-opacity="0.7"/>
<path d="M127.002 360.37L76.2294 389.732L95.8053 358.535L127.002 340.493L127.002 360.37Z" fill="url(#paint18_linear_595_67)" fill-opacity="0.9"/>
<path d="M127.001 360.362L177.774 389.725L152.271 536.355L127.001 521.74L127.001 360.362Z" fill="url(#paint19_linear_595_67)" fill-opacity="0.6"/>
<path d="M127 360.362L76.2278 389.725L101.731 536.355L127 521.74L127 360.362Z" fill="url(#paint20_linear_595_67)" fill-opacity="0.9"/>
<path d="M127.002 360.37L177.775 389.732L158.199 358.535L127.002 340.493L127.002 360.37Z" fill="url(#paint21_linear_595_67)" fill-opacity="0.9"/>
<path d="M218.681 373.608L189.028 324.391L181.784 370.105L218.681 373.608Z" fill="url(#paint22_linear_595_67)" fill-opacity="0.7"/>
</g>
</g>
<g filter="url(#filter0_f_595_67)">
<ellipse cx="127" cy="318.332" rx="173" ry="75.5522" fill="url(#paint23_radial_595_67)" fill-opacity="0.6"/>
</g>
<g filter="url(#filter1_f_595_67)">
<ellipse cx="127" cy="318.332" rx="122.884" ry="53.6655" fill="url(#paint24_radial_595_67)" fill-opacity="0.6"/>
</g>
<path d="M126.999 256.097L217.043 308.173L126.999 360.249L36.9544 308.173L126.999 256.097Z" fill="url(#paint25_linear_595_67)" fill-opacity="0.5"/>
<path d="M126.999 325.625L64.9712 291.999L35.3184 242.782L79.8857 81.1826L127 108.432L126.999 325.625Z" fill="url(#paint26_linear_595_67)"/>
<path opacity="0.8" d="M127 325.625L126.999 214.019L72.2166 246.285L64.9719 291.998L127 325.625Z" fill="url(#paint27_linear_595_67)" fill-opacity="0.7"/>
<g opacity="0.8">
<path d="M127 325.624L189.039 291.991L218.681 242.782L174.114 81.1826L127 108.432L127 325.624Z" fill="url(#paint28_linear_595_67)" fill-opacity="0.7"/>
<path d="M127 325.624L189.039 291.991L218.681 242.782L174.114 81.1826L127 108.432L127 325.624Z" fill="url(#paint29_linear_595_67)" fill-opacity="0.5"/>
</g>
<path d="M79.8838 81.1826L127 108.432L127 53.9335L79.8838 81.1826Z" fill="url(#paint30_linear_595_67)"/>
<path d="M126.999 239.81L158.196 257.852L126.999 275.895L95.8017 257.852L126.999 239.81Z" fill="url(#paint31_linear_595_67)" fill-opacity="0.5"/>
<path d="M174.116 81.1826L127 53.9335L127 108.432L174.116 81.1826Z" fill="url(#paint32_linear_595_67)" fill-opacity="0.8"/>
<path d="M126.999 65.4186L152.27 80.0338L126.999 94.649L101.728 80.0338L126.999 65.4186Z" fill="url(#paint33_linear_595_67)" fill-opacity="0.6"/>
<path opacity="0.8" d="M127 325.624L127.001 214.018L181.784 246.284L189.029 291.997L127 325.624Z" fill="url(#paint34_linear_595_67)"/>
<path d="M218.681 242.78L189.028 291.997L181.784 246.284L218.681 242.78Z" fill="url(#paint35_linear_595_67)" fill-opacity="0.7"/>
<path d="M126.999 197.292L177.772 226.656L126.999 256.02L76.2256 226.656L126.999 197.292Z" fill="url(#paint36_linear_595_67)" fill-opacity="0.7"/>
<path d="M126.999 197.292L177.772 226.656L126.999 256.02L76.2256 226.656L126.999 197.292Z" fill="url(#paint37_linear_595_67)" fill-opacity="0.7"/>
<path d="M126.998 256.019L177.771 226.656L158.195 257.854L126.998 275.895V256.019Z" fill="url(#paint38_linear_595_67)" fill-opacity="0.9"/>
<path d="M126.999 256.027L76.2263 226.663L101.729 80.0332L126.999 94.6488L126.999 256.027Z" fill="url(#paint39_linear_595_67)" fill-opacity="0.6"/>
<path d="M127 256.027L177.772 226.663L152.269 80.0332L127 94.6488L127 256.027Z" fill="url(#paint40_linear_595_67)" fill-opacity="0.9"/>
<path d="M126.998 256.019L76.2255 226.656L95.8014 257.854L126.998 275.895V256.019Z" fill="url(#paint41_linear_595_67)" fill-opacity="0.9"/>
<path d="M35.3194 242.781L64.972 291.998L72.2168 246.285L35.3194 242.781Z" fill="url(#paint42_linear_595_67)" fill-opacity="0.7"/>
<defs>
<filter id="filter0_f_595_67" x="-53.4082" y="235.372" width="360.816" height="165.921" filterUnits="userSpaceOnUse" color-interpolation-filters="sRGB">
<feFlood flood-opacity="0" result="BackgroundImageFix"/>
<feBlend mode="normal" in="SourceGraphic" in2="BackgroundImageFix" result="shape"/>
<feGaussianBlur stdDeviation="3.70408" result="effect1_foregroundBlur_595_67"/>
</filter>
<filter id="filter1_f_595_67" x="-3.29146" y="257.259" width="260.583" height="122.147" filterUnits="userSpaceOnUse" color-interpolation-filters="sRGB">
<feFlood flood-opacity="0" result="BackgroundImageFix"/>
<feBlend mode="normal" in="SourceGraphic" in2="BackgroundImageFix" result="shape"/>
<feGaussianBlur stdDeviation="3.70408" result="effect1_foregroundBlur_595_67"/>
</filter>
<radialGradient id="paint0_angular_595_67" cx="0" cy="0" r="1" gradientUnits="userSpaceOnUse" gradientTransform="translate(254.381 252.122) scale(508.767 244.388)">
<stop offset="0.458333" stop-color="white"/>
<stop offset="0.717799" stop-color="white" stop-opacity="0"/>
<stop offset="0.782437" stop-color="white" stop-opacity="0"/>
<stop offset="1" stop-color="white" stop-opacity="0.4"/>
</radialGradient>
<radialGradient id="paint1_angular_595_67" cx="0" cy="0" r="1" gradientUnits="userSpaceOnUse" gradientTransform="translate(254.381 253.765) scale(508.767 244.388)">
<stop offset="0.458333" stop-color="white"/>
<stop offset="0.717799" stop-color="white" stop-opacity="0"/>
<stop offset="0.782437" stop-color="white" stop-opacity="0"/>
<stop offset="1" stop-color="white" stop-opacity="0.4"/>
</radialGradient>
<radialGradient id="paint2_angular_595_67" cx="0" cy="0" r="1" gradientUnits="userSpaceOnUse" gradientTransform="translate(254.381 258.661) scale(508.767 243.474)">
<stop offset="0.458333" stop-color="white"/>
<stop offset="0.717799" stop-color="white" stop-opacity="0"/>
<stop offset="0.782437" stop-color="white" stop-opacity="0"/>
<stop offset="1" stop-color="white" stop-opacity="0.4"/>
</radialGradient>
<radialGradient id="paint3_angular_595_67" cx="0" cy="0" r="1" gradientUnits="userSpaceOnUse" gradientTransform="translate(254.381 265.874) scale(508.767 242.73)">
<stop offset="0.458333" stop-color="white"/>
<stop offset="0.717799" stop-color="white" stop-opacity="0"/>
<stop offset="0.782437" stop-color="white" stop-opacity="0"/>
<stop offset="1" stop-color="white" stop-opacity="0.4"/>
</radialGradient>
<radialGradient id="paint4_angular_595_67" cx="0" cy="0" r="1" gradientUnits="userSpaceOnUse" gradientTransform="translate(254.381 276.018) scale(508.767 241.447)">
<stop offset="0.458333" stop-color="white"/>
<stop offset="0.717799" stop-color="white" stop-opacity="0"/>
<stop offset="0.782437" stop-color="white" stop-opacity="0"/>
<stop offset="1" stop-color="white" stop-opacity="0.4"/>
</radialGradient>
<linearGradient id="paint5_linear_595_67" x1="120.303" y1="159.877" x2="120.303" y2="471.172" gradientUnits="userSpaceOnUse">
<stop/>
<stop offset="1" stop-opacity="0"/>
</linearGradient>
<linearGradient id="paint6_linear_595_67" x1="-53.4585" y1="552.309" x2="-66.6819" y2="369.577" gradientUnits="userSpaceOnUse">
<stop stop-color="#3D79ED"/>
<stop offset="0.265625" stop-color="#3458C1" stop-opacity="0.7"/>
<stop offset="0.618879" stop-color="#3753B8" stop-opacity="0.7"/>
<stop offset="0.895833" stop-color="#5BB0FF" stop-opacity="0.9"/>
<stop offset="1" stop-color="#5BB0FF" stop-opacity="0.6"/>
</linearGradient>
<linearGradient id="paint7_linear_595_67" x1="134.336" y1="305.493" x2="166.246" y2="376.262" gradientUnits="userSpaceOnUse">
<stop offset="0.046875" stop-color="white"/>
<stop offset="0.427083" stop-color="#DFF4FF"/>
<stop offset="0.994792" stop-color="#0E42C8"/>
</linearGradient>
<linearGradient id="paint8_linear_595_67" x1="35.3186" y1="284.031" x2="141.514" y2="365.055" gradientUnits="userSpaceOnUse">
<stop offset="0.280479" stop-color="white"/>
<stop offset="0.469567" stop-color="#FF79DA"/>
<stop offset="0.692708" stop-color="#3D3AE3" stop-opacity="0.9"/>
</linearGradient>
<linearGradient id="paint9_linear_595_67" x1="35.3186" y1="295.358" x2="140.298" y2="396.112" gradientUnits="userSpaceOnUse">
<stop offset="0.161458" stop-color="white"/>
<stop offset="1" stop-color="white" stop-opacity="0"/>
</linearGradient>
<linearGradient id="paint10_linear_595_67" x1="126.884" y1="561.55" x2="151.625" y2="521.01" gradientUnits="userSpaceOnUse">
<stop stop-color="#1AD6FF"/>
<stop offset="1" stop-color="#496BE4" stop-opacity="0.6"/>
<stop offset="1" stop-color="#1F3CA3"/>
</linearGradient>
<linearGradient id="paint11_linear_595_67" x1="109.095" y1="348.358" x2="152.026" y2="358.536" gradientUnits="userSpaceOnUse">
<stop stop-color="#81FF6C"/>
<stop offset="1" stop-color="#31F3FF"/>
</linearGradient>
<linearGradient id="paint12_linear_595_67" x1="79.884" y1="538.001" x2="124.797" y2="542.174" gradientUnits="userSpaceOnUse">
<stop stop-color="#FF79C9"/>
<stop offset="1" stop-color="#1F3CA3"/>
</linearGradient>
<linearGradient id="paint13_linear_595_67" x1="106.614" y1="532.933" x2="136.423" y2="536.356" gradientUnits="userSpaceOnUse">
<stop stop-color="#52FF6E"/>
<stop offset="1" stop-color="#31FFFF"/>
</linearGradient>
<linearGradient id="paint14_linear_595_67" x1="77.1036" y1="308.473" x2="100.305" y2="390.818" gradientUnits="userSpaceOnUse">
<stop offset="0.103809" stop-color="white"/>
<stop offset="0.436548" stop-color="#FFAACE" stop-opacity="0.8"/>
<stop offset="0.71875" stop-color="#6F97FF" stop-opacity="0.8"/>
</linearGradient>
<linearGradient id="paint15_linear_595_67" x1="53.768" y1="337.089" x2="72.2168" y2="373.607" gradientUnits="userSpaceOnUse">
<stop stop-color="white"/>
<stop offset="0.591466" stop-color="#FF94D4"/>
<stop offset="1" stop-color="#C994FF"/>
</linearGradient>
<linearGradient id="paint16_linear_595_67" x1="97.859" y1="373.168" x2="167.73" y2="389.733" gradientUnits="userSpaceOnUse">
<stop stop-color="#81FF6C"/>
<stop offset="1" stop-color="#31F3FF"/>
</linearGradient>
<linearGradient id="paint17_linear_595_67" x1="127.001" y1="362.477" x2="127.001" y2="420.437" gradientUnits="userSpaceOnUse">
<stop stop-color="white"/>
<stop offset="1" stop-color="white" stop-opacity="0"/>
</linearGradient>
<linearGradient id="paint18_linear_595_67" x1="73.7528" y1="389.732" x2="125.716" y2="342.814" gradientUnits="userSpaceOnUse">
<stop offset="0.149863" stop-color="white"/>
<stop offset="0.300261" stop-color="#8CFF31"/>
<stop offset="0.449118" stop-color="#45C3EB"/>
<stop offset="1" stop-color="#72E6FF"/>
</linearGradient>
<linearGradient id="paint19_linear_595_67" x1="149.67" y1="360.362" x2="230.208" y2="416.796" gradientUnits="userSpaceOnUse">
<stop stop-color="#6CFFED"/>
<stop offset="1" stop-color="#197F9F"/>
</linearGradient>
<linearGradient id="paint20_linear_595_67" x1="-50.4391" y1="426.345" x2="33.6861" y2="514.428" gradientUnits="userSpaceOnUse">
<stop offset="0.464598" stop-color="white"/>
<stop offset="0.790313" stop-color="#6DF390"/>
<stop offset="1" stop-color="#21CAFF" stop-opacity="0.9"/>
</linearGradient>
<linearGradient id="paint21_linear_595_67" x1="177.775" y1="389.732" x2="128.286" y2="342.882" gradientUnits="userSpaceOnUse">
<stop offset="0.125" stop-color="white"/>
<stop offset="0.297772" stop-color="#8CFF31"/>
<stop offset="0.447917" stop-color="#5BF5FF"/>
</linearGradient>
<linearGradient id="paint22_linear_595_67" x1="187.098" y1="320.397" x2="194.252" y2="373.608" gradientUnits="userSpaceOnUse">
<stop stop-color="#DFF4FF"/>
<stop offset="0.994792" stop-color="#0E42C8"/>
</linearGradient>
<radialGradient id="paint23_radial_595_67" cx="0" cy="0" r="1" gradientUnits="userSpaceOnUse" gradientTransform="translate(127 318.332) rotate(90) scale(75.5522 173)">
<stop stop-color="#739AFF"/>
<stop offset="1" stop-color="#6978FF" stop-opacity="0"/>
</radialGradient>
<radialGradient id="paint24_radial_595_67" cx="0" cy="0" r="1" gradientUnits="userSpaceOnUse" gradientTransform="translate(127 318.332) rotate(90) scale(53.6655 122.884)">
<stop stop-color="#739AFF"/>
<stop offset="1" stop-color="#6978FF" stop-opacity="0"/>
</radialGradient>
<linearGradient id="paint25_linear_595_67" x1="172.021" y1="263.151" x2="81.9766" y2="353.195" gradientUnits="userSpaceOnUse">
<stop stop-color="#6C7BFF"/>
<stop offset="1" stop-color="#31B5FF"/>
</linearGradient>
<linearGradient id="paint26_linear_595_67" x1="307.459" y1="64.0802" x2="320.682" y2="246.812" gradientUnits="userSpaceOnUse">
<stop stop-color="#3D79ED"/>
<stop offset="0.265625" stop-color="#3458C1" stop-opacity="0.7"/>
<stop offset="0.618879" stop-color="#3753B8" stop-opacity="0.7"/>
<stop offset="0.895833" stop-color="#5BB0FF" stop-opacity="0.9"/>
<stop offset="1" stop-color="#5BB0FF" stop-opacity="0.6"/>
</linearGradient>
<linearGradient id="paint27_linear_595_67" x1="119.664" y1="310.897" x2="87.7538" y2="240.128" gradientUnits="userSpaceOnUse">
<stop offset="0.046875" stop-color="white"/>
<stop offset="0.427083" stop-color="#DFF4FF"/>
<stop offset="0.994792" stop-color="#0E42C8"/>
</linearGradient>
<linearGradient id="paint28_linear_595_67" x1="218.681" y1="332.359" x2="112.486" y2="251.335" gradientUnits="userSpaceOnUse">
<stop offset="0.280479" stop-color="white"/>
<stop offset="0.469567" stop-color="#FF79DA"/>
<stop offset="0.692708" stop-color="#3D3AE3" stop-opacity="0.9"/>
</linearGradient>
<linearGradient id="paint29_linear_595_67" x1="218.681" y1="321.031" x2="113.702" y2="220.278" gradientUnits="userSpaceOnUse">
<stop offset="0.161458" stop-color="white"/>
<stop offset="1" stop-color="white" stop-opacity="0"/>
</linearGradient>
<linearGradient id="paint30_linear_595_67" x1="127.116" y1="54.8394" x2="102.375" y2="95.3792" gradientUnits="userSpaceOnUse">
<stop stop-color="#1AD6FF"/>
<stop offset="1" stop-color="#496BE4" stop-opacity="0.6"/>
<stop offset="1" stop-color="#1F3CA3"/>
</linearGradient>
<linearGradient id="paint31_linear_595_67" x1="144.905" y1="268.031" x2="101.974" y2="257.852" gradientUnits="userSpaceOnUse">
<stop stop-color="#81FF6C"/>
<stop offset="1" stop-color="#31F3FF"/>
</linearGradient>
<linearGradient id="paint32_linear_595_67" x1="174.116" y1="78.3883" x2="129.203" y2="74.2151" gradientUnits="userSpaceOnUse">
<stop stop-color="#FF79C9"/>
<stop offset="1" stop-color="#1F3CA3"/>
</linearGradient>
<linearGradient id="paint33_linear_595_67" x1="147.386" y1="83.4565" x2="117.577" y2="80.0337" gradientUnits="userSpaceOnUse">
<stop stop-color="#52FF6E"/>
<stop offset="1" stop-color="#31FFFF"/>
</linearGradient>
<linearGradient id="paint34_linear_595_67" x1="176.897" y1="307.915" x2="153.695" y2="225.57" gradientUnits="userSpaceOnUse">
<stop offset="0.103809" stop-color="white"/>
<stop offset="0.436548" stop-color="#FFAACE" stop-opacity="0.8"/>
<stop offset="0.71875" stop-color="#6F97FF" stop-opacity="0.8"/>
</linearGradient>
<linearGradient id="paint35_linear_595_67" x1="200.232" y1="279.299" x2="181.784" y2="242.78" gradientUnits="userSpaceOnUse">
<stop stop-color="white"/>
<stop offset="0.591466" stop-color="#FF94D4"/>
<stop offset="1" stop-color="#C994FF"/>
</linearGradient>
<linearGradient id="paint36_linear_595_67" x1="156.141" y1="243.221" x2="86.2704" y2="226.656" gradientUnits="userSpaceOnUse">
<stop stop-color="#81FF6C"/>
<stop offset="1" stop-color="#31F3FF"/>
</linearGradient>
<linearGradient id="paint37_linear_595_67" x1="126.999" y1="253.912" x2="126.999" y2="195.952" gradientUnits="userSpaceOnUse">
<stop stop-color="white"/>
<stop offset="1" stop-color="white" stop-opacity="0"/>
</linearGradient>
<linearGradient id="paint38_linear_595_67" x1="180.247" y1="226.656" x2="128.284" y2="273.575" gradientUnits="userSpaceOnUse">
<stop offset="0.149863" stop-color="white"/>
<stop offset="0.300261" stop-color="#8CFF31"/>
<stop offset="0.449118" stop-color="#45C3EB"/>
<stop offset="1" stop-color="#72E6FF"/>
</linearGradient>
<linearGradient id="paint39_linear_595_67" x1="104.33" y1="256.027" x2="23.7916" y2="199.593" gradientUnits="userSpaceOnUse">
<stop stop-color="#6CFFED"/>
<stop offset="1" stop-color="#197F9F"/>
</linearGradient>
<linearGradient id="paint40_linear_595_67" x1="304.439" y1="190.044" x2="220.314" y2="101.96" gradientUnits="userSpaceOnUse">
<stop offset="0.464598" stop-color="white"/>
<stop offset="0.790313" stop-color="#6DF390"/>
<stop offset="1" stop-color="#21CAFF" stop-opacity="0.9"/>
</linearGradient>
<linearGradient id="paint41_linear_595_67" x1="76.2255" y1="226.656" x2="125.714" y2="273.507" gradientUnits="userSpaceOnUse">
<stop offset="0.125" stop-color="white"/>
<stop offset="0.297772" stop-color="#8CFF31"/>
<stop offset="0.447917" stop-color="#5BF5FF"/>
</linearGradient>
<linearGradient id="paint42_linear_595_67" x1="66.9025" y1="295.992" x2="59.7484" y2="242.781" gradientUnits="userSpaceOnUse">
<stop stop-color="#DFF4FF"/>
<stop offset="0.994792" stop-color="#0E42C8"/>
</linearGradient>
</defs>
</svg>
